<svg width="494" height="423" viewBox="0 0 494 423" fill="none" xmlns="http://www.w3.org/2000/svg">
<g clip-path="url(#clip0_76_575)">
<g filter="url(#filter0_b_76_575)">
<rect x="232.041" y="257.665" width="261.959" height="165.335" rx="14.1323" fill="white" fill-opacity="0.2"/>
<rect x="458.041" y="325.533" width="8.00001" height="72" rx="4" transform="rotate(90 458.041 325.533)" fill="#95ABBC"/>
<rect x="454.041" y="347.665" width="8.00001" height="68" rx="4" transform="rotate(90 454.041 347.665)" fill="#95ABBC"/>
<rect x="462.041" y="369.797" width="8.00001" height="76" rx="4" transform="rotate(90 462.041 369.797)" fill="#95ABBC"/>
<g clip-path="url(#clip1_76_575)">
<path d="M346.686 351.295C346.686 373.346 328.854 391.197 306.888 391.197C284.922 391.197 267.09 373.346 267.09 351.295C267.09 329.243 284.922 311.393 306.888 311.393C328.854 311.393 346.686 329.243 346.686 351.295Z" stroke="#0A2640" stroke-width="13.3928"/>
<mask id="mask0_76_575" style="mask-type:alpha" maskUnits="userSpaceOnUse" x="232" y="287" width="74" height="122">
<path d="M305.405 346.998L287.269 287.841L232.365 357.573L261.548 408.468L305.405 346.998Z" fill="#C4C4C4"/>
</mask>
<g mask="url(#mask0_76_575)">
<path d="M346.687 351.294C346.687 373.345 328.855 391.196 306.889 391.196C284.923 391.196 267.091 373.345 267.091 351.294C267.091 329.243 284.923 311.392 306.889 311.392C328.855 311.392 346.687 329.243 346.687 351.294Z" stroke="#0DBBFC" stroke-width="13.3928"/>
</g>
<mask id="mask1_76_575" style="mask-type:alpha" maskUnits="userSpaceOnUse" x="281" y="282" width="91" height="85">
<path d="M311.544 352.182L371.54 366.873L339.835 283.913L281.272 282.96L311.544 352.182Z" fill="#C4C4C4"/>
</mask>
<g mask="url(#mask1_76_575)">
<path d="M286.489 385.535C267.597 374.249 261.396 349.763 272.643 330.842C283.889 311.92 308.321 305.732 327.214 317.018C346.106 328.303 352.306 352.79 341.06 371.711C329.814 390.632 305.381 396.82 286.489 385.535Z" stroke="#69E6A6" stroke-width="13.3928"/>
</g>
</g>
</g>
<ellipse cx="252.942" cy="275" rx="4.8" ry="5" fill="#FC5B00"/>
<ellipse cx="272.142" cy="275" rx="4.8" ry="5" fill="#ECAA00"/>
<ellipse cx="291.342" cy="275" rx="4.8" ry="5" fill="#009D10"/>
<g filter="url(#filter1_b_76_575)">
<g clip-path="url(#clip2_76_575)">
<rect x="0.14209" width="493.858" height="231.898" rx="15.0305" fill="white" fill-opacity="0.18"/>
<rect x="82.9223" y="68.1805" width="11.7769" height="54.1739" rx="5.88847" transform="rotate(90 82.9223 68.1805)" fill="#95ABBC"/>
<rect x="367.207" y="68.1091" width="11.9197" height="269.981" rx="5.95985" transform="rotate(90 367.207 68.1091)" fill="#8FB6D5"/>
<path d="M384.909 70.3059C385.402 70.3059 385.839 70.3835 386.219 70.5387C386.599 70.6939 386.896 70.9229 387.109 71.2255C387.327 71.5243 387.435 71.8929 387.435 72.3313C387.435 72.6767 387.36 72.9793 387.208 73.2393C387.061 73.4954 386.861 73.7204 386.609 73.9144C386.357 74.1045 386.077 74.2753 385.771 74.4266C386.135 74.5934 386.463 74.7816 386.754 74.9912C387.049 75.2007 387.282 75.4471 387.453 75.7303C387.623 76.0136 387.709 76.3492 387.709 76.7372C387.709 77.2145 387.592 77.6277 387.36 77.9769C387.131 78.3222 386.809 78.588 386.393 78.7743C385.978 78.9605 385.491 79.0536 384.933 79.0536C384.331 79.0536 383.819 78.9644 383.396 78.7859C382.977 78.6035 382.657 78.3436 382.436 78.006C382.218 77.6645 382.11 77.2552 382.11 76.7779C382.11 76.386 382.193 76.0465 382.36 75.7594C382.527 75.4684 382.748 75.2181 383.024 75.0086C383.299 74.7991 383.6 74.6225 383.926 74.479C383.642 74.3238 383.382 74.1472 383.146 73.9493C382.913 73.7515 382.727 73.5206 382.587 73.2567C382.451 72.989 382.383 72.6786 382.383 72.3255C382.383 71.8948 382.492 71.5301 382.709 71.2313C382.93 70.9287 383.231 70.6998 383.611 70.5446C383.996 70.3855 384.428 70.3059 384.909 70.3059ZM383.058 76.7838C383.058 77.2183 383.212 77.5772 383.518 77.8605C383.825 78.1399 384.288 78.2795 384.909 78.2795C385.499 78.2795 385.955 78.1399 386.277 77.8605C386.599 77.5772 386.76 77.2067 386.76 76.7488C386.76 76.4656 386.686 76.2173 386.539 76.0039C386.391 75.7866 386.182 75.5926 385.91 75.4218C385.639 75.2511 385.319 75.0959 384.95 74.9562L384.741 74.8806C384.384 75.028 384.079 75.1929 383.827 75.3753C383.578 75.5538 383.388 75.7575 383.256 75.9864C383.124 76.2153 383.058 76.4811 383.058 76.7838ZM384.898 71.0975C384.44 71.0975 384.065 71.208 383.774 71.4292C383.483 71.6465 383.338 71.9608 383.338 72.3721C383.338 72.667 383.408 72.9172 383.547 73.1229C383.691 73.3246 383.885 73.4993 384.129 73.6467C384.374 73.7903 384.647 73.9241 384.95 74.0483C385.245 73.9241 385.507 73.7883 385.736 73.6409C385.965 73.4896 386.145 73.3111 386.277 73.1054C386.409 72.8998 386.475 72.6534 386.475 72.3663C386.475 71.955 386.329 71.6407 386.038 71.4234C385.751 71.2061 385.371 71.0975 384.898 71.0975ZM394.542 74.671C394.542 75.3617 394.489 75.9786 394.385 76.5219C394.28 77.0651 394.115 77.5249 393.89 77.9012C393.665 78.2776 393.374 78.5647 393.017 78.7626C392.66 78.9566 392.231 79.0536 391.731 79.0536C391.098 79.0536 390.574 78.881 390.159 78.5356C389.748 78.1903 389.439 77.6917 389.234 77.0398C389.032 76.3841 388.931 75.5945 388.931 74.671C388.931 73.7631 389.022 72.9832 389.205 72.3313C389.391 71.6756 389.69 71.1731 390.101 70.8239C390.512 70.4708 391.055 70.2943 391.731 70.2943C392.371 70.2943 392.898 70.4689 393.314 70.8181C393.729 71.1634 394.037 71.664 394.239 72.3197C394.441 72.9716 394.542 73.7553 394.542 74.671ZM389.903 74.671C389.903 75.4626 389.963 76.1222 390.083 76.6499C390.204 77.1776 390.398 77.5734 390.665 77.8372C390.937 78.0972 391.292 78.2272 391.731 78.2272C392.169 78.2272 392.522 78.0972 392.79 77.8372C393.061 77.5772 393.257 77.1834 393.378 76.6557C393.502 76.128 393.564 75.4665 393.564 74.671C393.564 73.8911 393.504 73.2393 393.383 72.7155C393.263 72.1878 393.069 71.792 392.801 71.5282C392.534 71.2604 392.177 71.1266 391.731 71.1266C391.284 71.1266 390.927 71.2604 390.66 71.5282C390.392 71.792 390.198 72.1878 390.078 72.7155C389.961 73.2393 389.903 73.8911 389.903 74.671ZM397.475 70.3059C398.057 70.3059 398.497 70.5387 398.796 71.0043C399.099 71.4661 399.25 72.1199 399.25 72.9657C399.25 73.8116 399.105 74.4712 398.814 74.9446C398.523 75.4141 398.076 75.6488 397.475 75.6488C396.916 75.6488 396.488 75.4141 396.189 74.9446C395.894 74.4712 395.746 73.8116 395.746 72.9657C395.746 72.1199 395.888 71.4661 396.171 71.0043C396.455 70.5387 396.889 70.3059 397.475 70.3059ZM397.475 70.9985C397.161 70.9985 396.93 71.1634 396.782 71.4932C396.635 71.8192 396.561 72.31 396.561 72.9657C396.561 73.6215 396.635 74.1162 396.782 74.4499C396.93 74.7836 397.161 74.9504 397.475 74.9504C397.801 74.9504 398.043 74.7836 398.203 74.4499C398.362 74.1162 398.441 73.6215 398.441 72.9657C398.441 72.3139 398.362 71.823 398.203 71.4932C398.047 71.1634 397.805 70.9985 397.475 70.9985ZM402.864 70.4281L398.144 78.9372H397.295L402.015 70.4281H402.864ZM402.637 73.7165C403.216 73.7165 403.656 73.9493 403.959 74.415C404.261 74.8767 404.413 75.5305 404.413 76.3763C404.413 77.2183 404.267 77.876 403.976 78.3494C403.685 78.8189 403.239 79.0536 402.637 79.0536C402.075 79.0536 401.646 78.8189 401.351 78.3494C401.056 77.876 400.909 77.2183 400.909 76.3763C400.909 75.5305 401.049 74.8767 401.328 74.415C401.611 73.9493 402.048 73.7165 402.637 73.7165ZM402.637 74.415C402.323 74.415 402.092 74.5779 401.945 74.9038C401.797 75.2298 401.724 75.7206 401.724 76.3763C401.724 77.0321 401.797 77.5268 401.945 77.8605C402.092 78.1903 402.323 78.3552 402.637 78.3552C402.963 78.3552 403.206 78.1922 403.365 77.8663C403.524 77.5365 403.604 77.0398 403.604 76.3763C403.604 75.7245 403.524 75.2356 403.365 74.9097C403.21 74.5799 402.967 74.415 402.637 74.415Z" fill="white"/>
<rect x="82.9223" y="107.217" width="11.7769" height="54.1739" rx="5.88847" transform="rotate(90 82.9223 107.217)" fill="#95ABBC"/>
<rect x="177.088" y="107.444" width="11.3237" height="79.8619" rx="5.66185" transform="rotate(90 177.088 107.444)" fill="#0DBBFC"/>
<path d="M197.241 110.748C197.241 111.128 197.167 111.458 197.02 111.737C196.872 112.017 196.666 112.245 196.403 112.424C196.139 112.599 195.828 112.721 195.471 112.791V112.837C196.146 112.923 196.653 113.14 196.99 113.489C197.332 113.838 197.503 114.296 197.503 114.863C197.503 115.355 197.386 115.792 197.153 116.172C196.924 116.552 196.571 116.851 196.094 117.068C195.621 117.282 195.013 117.389 194.272 117.389C193.822 117.389 193.405 117.352 193.021 117.278C192.641 117.208 192.276 117.09 191.927 116.923V116.015C192.28 116.19 192.664 116.327 193.079 116.428C193.494 116.525 193.896 116.574 194.284 116.574C195.06 116.574 195.621 116.42 195.966 116.114C196.311 115.804 196.484 115.381 196.484 114.845C196.484 114.477 196.387 114.18 196.193 113.955C196.003 113.726 195.727 113.559 195.367 113.454C195.01 113.345 194.579 113.291 194.075 113.291H193.225V112.465H194.08C194.542 112.465 194.934 112.397 195.256 112.261C195.578 112.125 195.822 111.935 195.989 111.691C196.16 111.442 196.245 111.149 196.245 110.812C196.245 110.381 196.102 110.049 195.815 109.817C195.528 109.58 195.138 109.462 194.645 109.462C194.342 109.462 194.067 109.493 193.818 109.555C193.57 109.617 193.337 109.702 193.12 109.811C192.903 109.919 192.685 110.045 192.468 110.189L191.979 109.526C192.29 109.285 192.668 109.077 193.114 108.903C193.56 108.728 194.067 108.641 194.633 108.641C195.502 108.641 196.154 108.839 196.589 109.235C197.023 109.63 197.241 110.135 197.241 110.748ZM204.423 113.006C204.423 113.697 204.37 114.314 204.266 114.857C204.161 115.4 203.996 115.86 203.771 116.236C203.546 116.613 203.255 116.9 202.898 117.098C202.541 117.292 202.112 117.389 201.612 117.389C200.979 117.389 200.455 117.216 200.04 116.871C199.629 116.525 199.32 116.027 199.115 115.375C198.913 114.719 198.812 113.929 198.812 113.006C198.812 112.098 198.903 111.318 199.086 110.666C199.272 110.011 199.571 109.508 199.982 109.159C200.393 108.806 200.936 108.629 201.612 108.629C202.252 108.629 202.78 108.804 203.195 109.153C203.61 109.498 203.918 109.999 204.12 110.655C204.322 111.307 204.423 112.09 204.423 113.006ZM199.784 113.006C199.784 113.798 199.844 114.457 199.965 114.985C200.085 115.513 200.279 115.908 200.547 116.172C200.818 116.432 201.173 116.562 201.612 116.562C202.05 116.562 202.403 116.432 202.671 116.172C202.942 115.912 203.138 115.518 203.259 114.991C203.383 114.463 203.445 113.801 203.445 113.006C203.445 112.226 203.385 111.574 203.265 111.05C203.144 110.523 202.95 110.127 202.683 109.863C202.415 109.595 202.058 109.462 201.612 109.462C201.165 109.462 200.808 109.595 200.541 109.863C200.273 110.127 200.079 110.523 199.959 111.05C199.842 111.574 199.784 112.226 199.784 113.006ZM207.356 108.641C207.938 108.641 208.379 108.874 208.677 109.339C208.98 109.801 209.131 110.455 209.131 111.301C209.131 112.147 208.986 112.806 208.695 113.28C208.404 113.749 207.958 113.984 207.356 113.984C206.797 113.984 206.369 113.749 206.07 113.28C205.775 112.806 205.628 112.147 205.628 111.301C205.628 110.455 205.769 109.801 206.052 109.339C206.336 108.874 206.77 108.641 207.356 108.641ZM207.356 109.333C207.042 109.333 206.811 109.498 206.664 109.828C206.516 110.154 206.442 110.645 206.442 111.301C206.442 111.956 206.516 112.451 206.664 112.785C206.811 113.119 207.042 113.285 207.356 113.285C207.682 113.285 207.925 113.119 208.084 112.785C208.243 112.451 208.322 111.956 208.322 111.301C208.322 110.649 208.243 110.158 208.084 109.828C207.928 109.498 207.686 109.333 207.356 109.333ZM212.746 108.763L208.025 117.272H207.176L211.896 108.763H212.746ZM212.519 112.051C213.097 112.051 213.537 112.284 213.84 112.75C214.142 113.212 214.294 113.865 214.294 114.711C214.294 115.553 214.148 116.211 213.857 116.684C213.566 117.154 213.12 117.389 212.519 117.389C211.956 117.389 211.527 117.154 211.232 116.684C210.937 116.211 210.79 115.553 210.79 114.711C210.79 113.865 210.93 113.212 211.209 112.75C211.492 112.284 211.929 112.051 212.519 112.051ZM212.519 112.75C212.204 112.75 211.973 112.913 211.826 113.239C211.679 113.565 211.605 114.056 211.605 114.711C211.605 115.367 211.679 115.862 211.826 116.195C211.973 116.525 212.204 116.69 212.519 116.69C212.845 116.69 213.087 116.527 213.246 116.201C213.405 115.871 213.485 115.375 213.485 114.711C213.485 114.059 213.405 113.571 213.246 113.245C213.091 112.915 212.848 112.75 212.519 112.75Z" fill="white"/>
<rect x="82.9223" y="145.956" width="11.7769" height="54.1739" rx="5.88847" transform="rotate(90 82.9223 145.956)" fill="#95ABBC"/>
<rect x="414.885" y="145.885" width="11.9197" height="317.66" rx="5.95985" transform="rotate(90 414.885 145.885)" fill="white"/>
<path d="M433.374 156.011H432.431V149.981C432.431 149.753 432.431 149.557 432.431 149.394C432.435 149.227 432.439 149.075 432.443 148.94C432.45 148.8 432.46 148.658 432.472 148.515C432.351 148.639 432.239 148.746 432.134 148.835C432.029 148.92 431.899 149.027 431.744 149.155L430.772 149.935L430.266 149.277L432.571 147.502H433.374V156.011ZM442.22 151.745C442.22 152.436 442.168 153.053 442.063 153.596C441.959 154.139 441.794 154.599 441.569 154.975C441.344 155.352 441.053 155.639 440.696 155.837C440.339 156.031 439.91 156.128 439.409 156.128C438.777 156.128 438.253 155.955 437.838 155.61C437.427 155.264 437.118 154.766 436.912 154.114C436.711 153.458 436.61 152.668 436.61 151.745C436.61 150.837 436.701 150.057 436.883 149.405C437.07 148.75 437.368 148.247 437.78 147.898C438.191 147.545 438.734 147.368 439.409 147.368C440.05 147.368 440.577 147.543 440.992 147.892C441.408 148.237 441.716 148.738 441.918 149.394C442.12 150.045 442.22 150.829 442.22 151.745ZM437.582 151.745C437.582 152.536 437.642 153.196 437.762 153.724C437.882 154.252 438.076 154.647 438.344 154.911C438.616 155.171 438.971 155.301 439.409 155.301C439.848 155.301 440.201 155.171 440.469 154.911C440.74 154.651 440.936 154.257 441.056 153.73C441.181 153.202 441.243 152.54 441.243 151.745C441.243 150.965 441.182 150.313 441.062 149.789C440.942 149.262 440.748 148.866 440.48 148.602C440.212 148.334 439.855 148.2 439.409 148.2C438.963 148.2 438.606 148.334 438.338 148.602C438.071 148.866 437.877 149.262 437.756 149.789C437.64 150.313 437.582 150.965 437.582 151.745ZM449.042 151.745C449.042 152.436 448.989 153.053 448.885 153.596C448.78 154.139 448.615 154.599 448.39 154.975C448.165 155.352 447.874 155.639 447.517 155.837C447.16 156.031 446.731 156.128 446.231 156.128C445.598 156.128 445.074 155.955 444.659 155.61C444.248 155.264 443.939 154.766 443.734 154.114C443.532 153.458 443.431 152.668 443.431 151.745C443.431 150.837 443.522 150.057 443.705 149.405C443.891 148.75 444.19 148.247 444.601 147.898C445.012 147.545 445.555 147.368 446.231 147.368C446.871 147.368 447.398 147.543 447.814 147.892C448.229 148.237 448.537 148.738 448.739 149.394C448.941 150.045 449.042 150.829 449.042 151.745ZM444.403 151.745C444.403 152.536 444.463 153.196 444.583 153.724C444.704 154.252 444.898 154.647 445.165 154.911C445.437 155.171 445.792 155.301 446.231 155.301C446.669 155.301 447.022 155.171 447.29 154.911C447.561 154.651 447.757 154.257 447.878 153.73C448.002 153.202 448.064 152.54 448.064 151.745C448.064 150.965 448.004 150.313 447.883 149.789C447.763 149.262 447.569 148.866 447.301 148.602C447.034 148.334 446.677 148.2 446.231 148.2C445.784 148.2 445.427 148.334 445.16 148.602C444.892 148.866 444.698 149.262 444.578 149.789C444.461 150.313 444.403 150.965 444.403 151.745ZM451.975 147.38C452.557 147.38 452.997 147.613 453.296 148.078C453.599 148.54 453.75 149.194 453.75 150.04C453.75 150.886 453.605 151.545 453.314 152.019C453.023 152.488 452.576 152.723 451.975 152.723C451.416 152.723 450.988 152.488 450.689 152.019C450.394 151.545 450.246 150.886 450.246 150.04C450.246 149.194 450.388 148.54 450.671 148.078C450.955 147.613 451.389 147.38 451.975 147.38ZM451.975 148.072C451.661 148.072 451.43 148.237 451.282 148.567C451.135 148.893 451.061 149.384 451.061 150.04C451.061 150.695 451.135 151.19 451.282 151.524C451.43 151.857 451.661 152.024 451.975 152.024C452.301 152.024 452.543 151.857 452.703 151.524C452.862 151.19 452.941 150.695 452.941 150.04C452.941 149.388 452.862 148.897 452.703 148.567C452.547 148.237 452.305 148.072 451.975 148.072ZM457.364 147.502L452.644 156.011H451.795L456.515 147.502H457.364ZM457.137 150.79C457.716 150.79 458.156 151.023 458.459 151.489C458.761 151.951 458.913 152.604 458.913 153.45C458.913 154.292 458.767 154.95 458.476 155.423C458.185 155.893 457.739 156.128 457.137 156.128C456.575 156.128 456.146 155.893 455.851 155.423C455.556 154.95 455.409 154.292 455.409 153.45C455.409 152.604 455.549 151.951 455.828 151.489C456.111 151.023 456.548 150.79 457.137 150.79ZM457.137 151.489C456.823 151.489 456.592 151.652 456.445 151.978C456.297 152.304 456.224 152.795 456.224 153.45C456.224 154.106 456.297 154.601 456.445 154.934C456.592 155.264 456.823 155.429 457.137 155.429C457.463 155.429 457.706 155.266 457.865 154.94C458.024 154.61 458.104 154.114 458.104 153.45C458.104 152.798 458.024 152.31 457.865 151.984C457.71 151.654 457.467 151.489 457.137 151.489Z" fill="white"/>
<rect x="82.9223" y="184.695" width="11.7769" height="54.1739" rx="5.88847" transform="rotate(90 82.9223 184.695)" fill="#95ABBC"/>
<rect x="351.115" y="184.922" width="11.3237" height="253.889" rx="5.66186" transform="rotate(90 351.115 184.922)" fill="#65E4A3"/>
<path d="M367.107 194.75L370.599 187.126H365.96V186.241H371.635V186.986L368.166 194.75H367.107ZM375.517 189.547C376.095 189.547 376.597 189.646 377.024 189.844C377.451 190.038 377.781 190.321 378.014 190.693C378.25 191.066 378.369 191.518 378.369 192.05C378.369 192.632 378.243 193.134 377.99 193.557C377.738 193.976 377.375 194.3 376.902 194.529C376.429 194.754 375.862 194.867 375.202 194.867C374.76 194.867 374.349 194.828 373.969 194.75C373.588 194.672 373.268 194.556 373.008 194.401V193.481C373.291 193.652 373.635 193.788 374.038 193.889C374.442 193.99 374.834 194.04 375.214 194.04C375.645 194.04 376.021 193.972 376.343 193.836C376.669 193.697 376.921 193.487 377.1 193.208C377.282 192.925 377.373 192.569 377.373 192.143C377.373 191.576 377.199 191.14 376.85 190.833C376.504 190.523 375.957 190.368 375.208 190.368C374.968 190.368 374.704 190.387 374.417 190.426C374.13 190.465 373.893 190.507 373.707 190.554L373.218 190.234L373.544 186.241H377.775V187.126H374.37L374.155 189.692C374.302 189.661 374.492 189.63 374.725 189.599C374.958 189.564 375.222 189.547 375.517 189.547ZM381.383 186.119C381.965 186.119 382.406 186.352 382.705 186.817C383.007 187.279 383.159 187.933 383.159 188.779C383.159 189.624 383.013 190.284 382.722 190.757C382.431 191.227 381.985 191.462 381.383 191.462C380.825 191.462 380.396 191.227 380.097 190.757C379.802 190.284 379.655 189.624 379.655 188.779C379.655 187.933 379.796 187.279 380.08 186.817C380.363 186.352 380.798 186.119 381.383 186.119ZM381.383 186.811C381.069 186.811 380.838 186.976 380.691 187.306C380.543 187.632 380.47 188.123 380.47 188.779C380.47 189.434 380.543 189.929 380.691 190.263C380.838 190.596 381.069 190.763 381.383 190.763C381.709 190.763 381.952 190.596 382.111 190.263C382.27 189.929 382.35 189.434 382.35 188.779C382.35 188.127 382.27 187.636 382.111 187.306C381.956 186.976 381.713 186.811 381.383 186.811ZM386.773 186.241L382.053 194.75H381.203L385.923 186.241H386.773ZM386.546 189.529C387.124 189.529 387.564 189.762 387.867 190.228C388.17 190.69 388.321 191.343 388.321 192.189C388.321 193.031 388.176 193.689 387.885 194.162C387.594 194.632 387.147 194.867 386.546 194.867C385.983 194.867 385.555 194.632 385.26 194.162C384.965 193.689 384.817 193.031 384.817 192.189C384.817 191.343 384.957 190.69 385.236 190.228C385.52 189.762 385.956 189.529 386.546 189.529ZM386.546 190.228C386.232 190.228 386.001 190.391 385.853 190.717C385.706 191.043 385.632 191.533 385.632 192.189C385.632 192.845 385.706 193.34 385.853 193.673C386.001 194.003 386.232 194.168 386.546 194.168C386.872 194.168 387.114 194.005 387.273 193.679C387.433 193.349 387.512 192.853 387.512 192.189C387.512 191.537 387.433 191.048 387.273 190.723C387.118 190.393 386.876 190.228 386.546 190.228Z" fill="white"/>
<circle cx="18.9852" cy="18.8431" r="4.71077" fill="#FC5B00"/>
<circle cx="37.8282" cy="18.8431" r="4.71077" fill="#ECAA00"/>
<circle cx="56.6713" cy="18.8431" r="4.71077" fill="#009D10"/>
</g>
</g>
<g filter="url(#filter2_b_76_575)">
<path d="M1.2157 272.695C1.2157 264.394 7.94506 257.665 16.2462 257.665H178.36C186.661 257.665 193.391 264.394 193.391 272.695V407.97C193.391 416.271 186.661 423 178.36 423H16.2461C7.94505 423 1.2157 416.271 1.2157 407.97V272.695Z" fill="white" fill-opacity="0.18"/>
</g>
<ellipse cx="22.1133" cy="275.6" rx="4.71999" ry="4.75784" fill="#FC5B00"/>
<ellipse cx="40.9933" cy="275.6" rx="4.71999" ry="4.75784" fill="#ECAA00"/>
<ellipse cx="59.8732" cy="275.6" rx="4.71999" ry="4.75784" fill="#009D10"/>
<rect width="9.30457" height="23.2668" rx="4.65228" transform="matrix(1 0 0 -1 25.9086 402.528)" fill="#0DBBFC"/>
<rect width="9.30457" height="13.4841" rx="4.65228" transform="matrix(1 0 0 -1 44.5178 392.745)" fill="#0DBBFC"/>
<rect x="63.1268" y="316.864" width="9.30457" height="62.3972" rx="4.65228" fill="#0DBBFC"/>
<rect x="81.736" y="336.165" width="9.30457" height="43.0964" rx="4.65229" fill="#0DBBFC"/>
<rect x="100.345" y="296.241" width="9.30457" height="83.02" rx="4.65229" fill="#95ABBC"/>
<rect x="118.954" y="320.565" width="9.30457" height="58.6957" rx="4.65229" fill="#0DBBFC"/>
<rect x="137.563" y="309.196" width="9.30456" height="70.0647" rx="4.65228" fill="#0DBBFC"/>
<rect x="156.173" y="347.269" width="9.30456" height="31.9918" rx="4.65228" fill="#0DBBFC"/>
</g>
<defs>
<filter id="filter0_b_76_575" x="98.9136" y="124.538" width="528.213" height="431.589" filterUnits="userSpaceOnUse" color-interpolation-filters="sRGB">
<feFlood flood-opacity="0" result="BackgroundImageFix"/>
<feGaussianBlur in="BackgroundImage" stdDeviation="66.5635"/>
<feComposite in2="SourceAlpha" operator="in" result="effect1_backgroundBlur_76_575"/>
<feBlend mode="normal" in="SourceGraphic" in2="effect1_backgroundBlur_76_575" result="shape"/>
</filter>
<filter id="filter1_b_76_575" x="-68.5686" y="-68.7107" width="631.279" height="369.32" filterUnits="userSpaceOnUse" color-interpolation-filters="sRGB">
<feFlood flood-opacity="0" result="BackgroundImageFix"/>
<feGaussianBlur in="BackgroundImage" stdDeviation="34.3553"/>
<feComposite in2="SourceAlpha" operator="in" result="effect1_backgroundBlur_76_575"/>
<feBlend mode="normal" in="SourceGraphic" in2="effect1_backgroundBlur_76_575" result="shape"/>
</filter>
<filter id="filter2_b_76_575" x="-67.495" y="188.954" width="329.596" height="302.756" filterUnits="userSpaceOnUse" color-interpolation-filters="sRGB">
<feFlood flood-opacity="0" result="BackgroundImageFix"/>
<feGaussianBlur in="BackgroundImage" stdDeviation="34.3553"/>
<feComposite in2="SourceAlpha" operator="in" result="effect1_backgroundBlur_76_575"/>
<feBlend mode="normal" in="SourceGraphic" in2="effect1_backgroundBlur_76_575" result="shape"/>
</filter>
<clipPath id="clip0_76_575">
<rect width="493.858" height="423" fill="white" transform="translate(0.14209)"/>
</clipPath>
<clipPath id="clip1_76_575">
<rect width="93.0378" height="93.0378" fill="white" transform="translate(260.305 304.773)"/>
</clipPath>
<clipPath id="clip2_76_575">
<rect x="0.14209" width="493.858" height="231.898" rx="15.0305" fill="white"/>
</clipPath>
</defs>
</svg>
