<svg width="56" height="56" viewBox="0 0 56 57" fill="none" xmlns="http://www.w3.org/2000/svg">
<path d="M21.0156 0.859375C20.0244 0.859375 18.995 1.2025 18.2706 1.92687C17.5463 2.65125 17.2031 3.68063 17.2031 4.67188V6.57812H0.046875V44.7031H21.3969C21.1491 43.4831 21.0156 42.2059 21.0156 40.8906H3.85938V28.3856C4.98406 29.0338 6.28031 29.4531 7.67188 29.4531H24.8472C25.9147 28.0044 27.2109 26.7081 28.6597 25.6406H7.67188C5.40344 25.6406 3.85938 24.0966 3.85938 21.8281V10.3906H45.7969V21.8281C45.7969 22.1331 45.7778 22.4191 45.7206 22.6859C47.0931 23.1053 48.3894 23.6772 49.6094 24.3825V6.57812H32.4531V4.67188C32.4531 3.68063 32.11 2.65125 31.3856 1.92687C30.6613 1.2025 29.6319 0.859375 28.6406 0.859375H21.0156ZM21.0156 4.67188H28.6406V6.57812H21.0156V4.67188ZM11.4844 18.0156V23.7344H15.2969V18.0156H11.4844ZM34.3594 18.0156V22.705C35.6007 22.317 36.878 22.0552 38.1719 21.9234V18.0156H34.3594ZM40.0781 25.6406C31.6716 25.6406 24.8281 32.4841 24.8281 40.8906C24.8281 49.2972 31.6716 56.1406 40.0781 56.1406C48.4847 56.1406 55.3281 49.2972 55.3281 40.8906C55.3281 32.4841 48.4847 25.6406 40.0781 25.6406ZM40.0781 29.4531C46.4069 29.4531 51.5156 34.5619 51.5156 40.8906C51.5156 47.2194 46.4069 52.3281 40.0781 52.3281C33.7494 52.3281 28.6406 47.2194 28.6406 40.8906C28.6406 34.5619 33.7494 29.4531 40.0781 29.4531ZM38.1719 31.3594V42.7969H47.7031V38.9844H41.9844V31.3594H38.1719Z" fill="#2257BF"/>
</svg>
