<svg width="54" height="55" viewBox="0 0 54 55" fill="none" xmlns="http://www.w3.org/2000/svg">
<path d="M3.8125 35.125V38.9375H12.5546L0 51.4921L2.69544 54.1875L15.25 41.6329V50.375H19.0625V35.125H3.8125Z" fill="#2257BF"/>
<path d="M49.5625 19.875H38.125C37.1142 19.874 36.145 19.472 35.4303 18.7572C34.7155 18.0425 34.3135 17.0733 34.3125 16.0625V4.625C34.3135 3.61417 34.7155 2.64503 35.4303 1.93027C36.145 1.21551 37.1142 0.813509 38.125 0.8125H49.5625C50.5733 0.813509 51.5425 1.21551 52.2572 1.93027C52.972 2.64503 53.374 3.61417 53.375 4.625V16.0625C53.374 17.0733 52.972 18.0425 52.2572 18.7572C51.5425 19.472 50.5733 19.874 49.5625 19.875V19.875ZM38.125 4.625V16.0625H49.5625V4.625H38.125Z" fill="#2257BF"/>
<path d="M41.9375 46.5625H26.6875V42.75H41.9375V29.4062H11.4375C10.4267 29.4052 9.45753 29.0032 8.74277 28.2885C8.02801 27.5737 7.62601 26.6046 7.625 25.5938V12.25C7.62601 11.2392 8.02801 10.27 8.74277 9.55527C9.45753 8.84051 10.4267 8.43851 11.4375 8.4375H30.5V12.25H11.4375V25.5938H41.9375C42.9483 25.5948 43.9175 25.9968 44.6322 26.7115C45.347 27.4263 45.749 28.3954 45.75 29.4062V42.75C45.749 43.7608 45.347 44.73 44.6322 45.4447C43.9175 46.1595 42.9483 46.5615 41.9375 46.5625V46.5625Z" fill="#2257BF"/>
</svg>
