<svg width="55" height="55" viewBox="0 0 55 55" fill="none" xmlns="http://www.w3.org/2000/svg">
<path fill-rule="evenodd" clip-rule="evenodd" d="M20.6875 4C11.8509 4 4.6875 11.1634 4.6875 20C4.6875 28.8366 11.8509 36 20.6875 36V40C9.64179 40 0.6875 31.0457 0.6875 20C0.6875 8.95429 9.64179 0 20.6875 0C31.7332 0 40.6875 8.95429 40.6875 20H36.6875C36.6875 11.1634 29.5241 4 20.6875 4Z" fill="#2257BF"/>
<path fill-rule="evenodd" clip-rule="evenodd" d="M17.6875 20C17.6875 18.8954 18.5829 18 19.6875 18H52.6875C53.7921 18 54.6875 18.8954 54.6875 20V53C54.6875 54.1046 53.7921 55 52.6875 55H19.6875C18.5829 55 17.6875 54.1046 17.6875 53V20ZM21.6875 22V51H50.6875V22H21.6875Z" fill="#2257BF"/>
</svg>
