<svg width="56" height="56" viewBox="0 0 56 55" fill="none" xmlns="http://www.w3.org/2000/svg">
<path fill-rule="evenodd" clip-rule="evenodd" d="M9.97066 22.4914C11.299 21.163 13.1007 20.4167 14.9793 20.4167C16.8579 20.4167 18.6596 21.163 19.988 22.4914C21.3164 23.8198 22.0627 25.6215 22.0627 27.5001C22.0627 29.3787 21.3164 31.1804 19.988 32.5088C18.6596 33.8371 16.8579 34.5834 14.9793 34.5834C13.1007 34.5834 11.299 33.8371 9.97066 32.5088C8.64227 31.1804 7.896 29.3787 7.896 27.5001C7.896 25.6215 8.64227 23.8198 9.97066 22.4914ZM14.9793 30.5834C15.7971 30.5834 16.5813 30.2586 17.1596 29.6803C17.7378 29.1021 18.0627 28.3178 18.0627 27.5001C18.0627 26.6823 17.7378 25.8981 17.1596 25.3198C16.5813 24.7416 15.7971 24.4167 14.9793 24.4167C14.1616 24.4167 13.3773 24.7416 12.7991 25.3198C12.2208 25.8981 11.896 26.6823 11.896 27.5001C11.896 28.3178 12.2208 29.1021 12.7991 29.6803C13.3773 30.2586 14.1616 30.5834 14.9793 30.5834Z" fill="#2257BF"/>
<path fill-rule="evenodd" clip-rule="evenodd" d="M35.3872 22.4914C36.7155 21.163 38.5172 20.4167 40.3958 20.4167C42.2745 20.4167 44.0761 21.163 45.4045 22.4914C46.7329 23.8198 47.4792 25.6215 47.4792 27.5001C47.4792 29.3787 46.7329 31.1804 45.4045 32.5088C44.0761 33.8371 42.2745 34.5834 40.3958 34.5834C38.5172 34.5834 36.7155 33.8371 35.3872 32.5088C34.0588 31.1804 33.3125 29.3787 33.3125 27.5001C33.3125 25.6215 34.0588 23.8198 35.3872 22.4914ZM40.3958 30.5834C41.2136 30.5834 41.9978 30.2586 42.5761 29.6803C43.1543 29.1021 43.4792 28.3178 43.4792 27.5001C43.4792 26.6823 43.1543 25.8981 42.5761 25.3198C41.9978 24.7416 41.2136 24.4167 40.3958 24.4167C39.5781 24.4167 38.7938 24.7416 38.2156 25.3198C37.6374 25.8981 37.3125 26.6823 37.3125 27.5001C37.3125 28.3178 37.6374 29.1021 38.2156 29.6803C38.7938 30.2586 39.5781 30.5834 40.3958 30.5834Z" fill="#2257BF"/>
<path fill-rule="evenodd" clip-rule="evenodd" d="M22.6792 9.78303C24.0075 8.45465 25.8092 7.70837 27.6878 7.70837C29.5664 7.70837 31.3681 8.45465 32.6965 9.78303C34.0249 11.1114 34.7712 12.9131 34.7712 14.7917C34.7712 16.6703 34.0249 18.472 32.6965 19.8004C31.3681 21.1288 29.5664 21.875 27.6878 21.875C25.8092 21.875 24.0075 21.1288 22.6792 19.8004C21.3508 18.472 20.6045 16.6703 20.6045 14.7917C20.6045 12.9131 21.3508 11.1114 22.6792 9.78303ZM27.6878 11.7084C26.8701 11.7084 26.0858 12.0332 25.5076 12.6115C24.9293 13.1897 24.6045 13.974 24.6045 14.7917C24.6045 15.6095 24.9293 16.3937 25.5076 16.972C26.0858 17.5502 26.8701 17.875 27.6878 17.875C28.5056 17.875 29.2898 17.5502 29.8681 16.972C30.4463 16.3937 30.7712 15.6095 30.7712 14.7917C30.7712 13.974 30.4463 13.1897 29.8681 12.6115C29.2898 12.0332 28.5056 11.7084 27.6878 11.7084Z" fill="#2257BF"/>
<path fill-rule="evenodd" clip-rule="evenodd" d="M22.6792 35.1997C24.0075 33.8713 25.8092 33.125 27.6878 33.125C29.5664 33.125 31.3681 33.8713 32.6965 35.1997C34.0249 36.528 34.7712 38.3297 34.7712 40.2083C34.7712 42.087 34.0249 43.8886 32.6965 45.217C31.3681 46.5454 29.5664 47.2917 27.6878 47.2917C25.8092 47.2917 24.0075 46.5454 22.6792 45.217C21.3508 43.8886 20.6045 42.087 20.6045 40.2083C20.6045 38.3297 21.3508 36.528 22.6792 35.1997ZM27.6878 37.125C26.8701 37.125 26.0858 37.4499 25.5076 38.0281C24.9293 38.6063 24.6045 39.3906 24.6045 40.2083C24.6045 41.0261 24.9293 41.8103 25.5076 42.3886C26.0858 42.9668 26.8701 43.2917 27.6878 43.2917C28.5056 43.2917 29.2898 42.9668 29.8681 42.3886C30.4463 41.8103 30.7712 41.0261 30.7712 40.2083C30.7712 39.3906 30.4463 38.6063 29.8681 38.0281C29.2898 37.4499 28.5056 37.125 27.6878 37.125Z" fill="#2257BF"/>
<path fill-rule="evenodd" clip-rule="evenodd" d="M0.270996 27.5C0.270996 12.3578 12.5455 0.083374 27.6877 0.083374C42.8299 0.083374 55.1043 12.3578 55.1043 27.5C55.1043 42.6422 42.8299 54.9167 27.6877 54.9167C17.7718 54.9167 9.08576 49.6531 4.271 41.7675V52.9167C4.271 54.0213 3.37557 54.9167 2.271 54.9167C1.16643 54.9167 0.270996 54.0213 0.270996 52.9167V27.5ZM4.271 27.5C4.271 40.4331 14.7546 50.9167 27.6877 50.9167C40.6207 50.9167 51.1043 40.4331 51.1043 27.5C51.1043 14.567 40.6207 4.08337 27.6877 4.08337C14.7546 4.08337 4.271 14.567 4.271 27.5Z" fill="#2257BF"/>
</svg>
