<svg width="48" height="49" viewBox="0 0 49 49" fill="none" xmlns="http://www.w3.org/2000/svg">
<path fill-rule="evenodd" clip-rule="evenodd" d="M44.6875 3.16667H4.6875C4.33388 3.16667 3.99474 3.30714 3.74469 3.55719C3.49464 3.80724 3.35417 4.14638 3.35417 4.5V44.5C3.35417 44.8536 3.49464 45.1928 3.74469 45.4428C3.99474 45.6929 4.33388 45.8333 4.6875 45.8333H44.6875C45.0411 45.8333 45.3803 45.6929 45.6303 45.4428C45.8804 45.1928 46.0208 44.8536 46.0208 44.5V4.5C46.0208 4.14638 45.8804 3.80724 45.6303 3.55719C45.3803 3.30714 45.0411 3.16667 44.6875 3.16667ZM4.6875 0.5C3.62663 0.5 2.60922 0.921428 1.85907 1.67157C1.10893 2.42172 0.6875 3.43913 0.6875 4.5V44.5C0.6875 45.5609 1.10893 46.5783 1.85907 47.3284C2.60922 48.0786 3.62663 48.5 4.6875 48.5H44.6875C45.7484 48.5 46.7658 48.0786 47.5159 47.3284C48.2661 46.5783 48.6875 45.5609 48.6875 44.5V4.5C48.6875 3.43913 48.2661 2.42172 47.5159 1.67157C46.7658 0.921428 45.7484 0.5 44.6875 0.5H4.6875Z" fill="#2257BF"/>
<path fill-rule="evenodd" clip-rule="evenodd" d="M22.0208 37.8334V11.1667H27.3541V37.8334H22.0208Z" fill="#2257BF"/>
<path fill-rule="evenodd" clip-rule="evenodd" d="M38.0209 27.1667H11.3542V21.8334H38.0209V27.1667Z" fill="#2257BF"/>
</svg>
