<svg width="62" height="62" viewBox="0 0 62 61" fill="none" xmlns="http://www.w3.org/2000/svg">
<path fill-rule="evenodd" clip-rule="evenodd" d="M32.1017 1.58579C32.8828 2.36683 32.8828 3.63317 32.1017 4.41421L25.9906 10.5253C25.6442 10.8718 25.2022 11.0645 24.7495 11.1036C25.9296 12.7363 26.5764 14.7098 26.5764 16.75C26.5764 19.3064 25.5609 21.7581 23.7532 23.5657C21.9456 25.3734 19.4939 26.3889 16.9375 26.3889C14.3811 26.3889 11.9294 25.3734 10.1218 23.5657C8.31413 21.7581 7.29861 19.3064 7.29861 16.75C7.29861 14.1936 8.31413 11.7419 10.1218 9.93428C11.9294 8.12663 14.3811 7.11111 16.9375 7.11111C18.9777 7.11111 20.9512 7.75792 22.5839 8.93798C22.623 8.48527 22.8157 8.04335 23.1622 7.6969L29.2733 1.58579C30.0543 0.804738 31.3207 0.804738 32.1017 1.58579ZM16.9375 22.3889C18.433 22.3889 19.8673 21.7948 20.9248 20.7373C21.9823 19.6798 22.5764 18.2455 22.5764 16.75C22.5764 15.2545 21.9823 13.8202 20.9248 12.7627C19.8673 11.7052 18.433 11.1111 16.9375 11.1111C15.442 11.1111 14.0077 11.7052 12.9502 12.7627C11.8927 13.8202 11.2986 15.2545 11.2986 16.75C11.2986 18.2455 11.8927 19.6798 12.9502 20.7373C14.0077 21.7948 15.442 22.3889 16.9375 22.3889ZM43.7329 3.82317C45.5405 2.01552 47.9922 1 50.5486 1C53.105 1 55.5567 2.01552 57.3643 3.82317C59.172 5.63081 60.1875 8.0825 60.1875 10.6389C60.1875 13.1953 59.172 15.647 57.3643 17.4546C55.5567 19.2623 53.105 20.2778 50.5486 20.2778C48.5084 20.2778 46.5349 19.631 44.9023 18.4509C44.8632 18.9036 44.6704 19.3455 44.3239 19.692L19.8795 44.1364C19.533 44.4829 19.0911 44.6757 18.6384 44.7148C19.8185 46.3474 20.4653 48.3209 20.4653 50.3611C20.4653 52.9175 19.4498 55.3692 17.6421 57.1768C15.8345 58.9845 13.3828 60 10.8264 60C8.27 60 5.81831 58.9845 4.01067 57.1768C2.20302 55.3692 1.1875 52.9175 1.1875 50.3611C1.1875 47.8047 2.20302 45.353 4.01067 43.5454C5.81831 41.7377 8.27 40.7222 10.8264 40.7222C12.8666 40.7222 14.8401 41.369 16.4727 42.5491C16.5118 42.0964 16.7046 41.6545 17.0511 41.308L41.4955 16.8636C41.842 16.5171 42.2839 16.3243 42.7366 16.2852C41.5565 14.6526 40.9097 12.6791 40.9097 10.6389C40.9097 8.0825 41.9252 5.63081 43.7329 3.82317ZM10.8264 56C12.3219 56 13.7562 55.4059 14.8137 54.3484C15.8712 53.2909 16.4653 51.8566 16.4653 50.3611C16.4653 48.8656 15.8712 47.4313 14.8137 46.3738C13.7562 45.3163 12.3219 44.7222 10.8264 44.7222C9.33086 44.7222 7.89659 45.3163 6.83909 46.3738C5.7816 47.4313 5.1875 48.8656 5.1875 50.3611C5.1875 51.8566 5.7816 53.2909 6.83909 54.3484C7.89659 55.4059 9.33086 56 10.8264 56ZM50.5486 5C49.0531 5 47.6188 5.5941 46.5613 6.65159C45.5038 7.70909 44.9097 9.14336 44.9097 10.6389C44.9097 12.1344 45.5038 13.5687 46.5613 14.6262C47.6188 15.6837 49.0531 16.2778 50.5486 16.2778C52.0441 16.2778 53.4784 15.6837 54.5359 14.6262C55.5934 13.5687 56.1875 12.1344 56.1875 10.6389C56.1875 9.14336 55.5934 7.70909 54.5359 6.65159C53.4784 5.5941 52.0441 5 50.5486 5ZM37.6218 37.4343C39.4294 35.6266 41.8811 34.6111 44.4375 34.6111C46.9939 34.6111 49.4456 35.6266 51.2532 37.4343C53.0609 39.2419 54.0764 41.6936 54.0764 44.25C54.0764 46.8064 53.0609 49.2581 51.2532 51.0657C49.4456 52.8734 46.9939 53.8889 44.4375 53.8889C42.3973 53.8889 40.4238 53.2421 38.7911 52.062C38.752 52.5147 38.5593 52.9567 38.2128 53.3031L32.1017 59.4142C31.3207 60.1953 30.0543 60.1953 29.2733 59.4142C28.4922 58.6332 28.4922 57.3668 29.2733 56.5858L35.3844 50.4747C35.7308 50.1282 36.1728 49.9355 36.6255 49.8964C35.4454 48.2637 34.7986 46.2902 34.7986 44.25C34.7986 41.6936 35.8141 39.2419 37.6218 37.4343ZM44.4375 49.8889C45.933 49.8889 47.3673 49.2948 48.4248 48.2373C49.4823 47.1798 50.0764 45.7455 50.0764 44.25C50.0764 42.7545 49.4823 41.3202 48.4248 40.2627C47.3673 39.2052 45.933 38.6111 44.4375 38.6111C42.942 38.6111 41.5077 39.2052 40.4502 40.2627C39.3927 41.3202 38.7986 42.7545 38.7986 44.25C38.7986 45.7455 39.3927 47.1798 40.4502 48.2373C41.5077 49.2948 42.942 49.8889 44.4375 49.8889Z" fill="#2257BF"/>
</svg>
