<svg width="64" height="59" viewBox="0 0 63 59" fill="none" xmlns="http://www.w3.org/2000/svg">
<path fill-rule="evenodd" clip-rule="evenodd" d="M0.645508 9.39404C0.645508 8.28947 1.54094 7.39404 2.64551 7.39404H42.8571C43.9616 7.39404 44.8571 8.28947 44.8571 9.39404C44.8571 10.4986 43.9616 11.394 42.8571 11.394H2.64551C1.54094 11.394 0.645508 10.4986 0.645508 9.39404Z" fill="#2257BF"/>
<path fill-rule="evenodd" clip-rule="evenodd" d="M22.7512 0.692139C23.8558 0.692139 24.7512 1.58757 24.7512 2.69214V9.39406C24.7512 10.4986 23.8558 11.3941 22.7512 11.3941C21.6467 11.3941 20.7512 10.4986 20.7512 9.39406V2.69214C20.7512 1.58757 21.6467 0.692139 22.7512 0.692139Z" fill="#2257BF"/>
<path fill-rule="evenodd" clip-rule="evenodd" d="M47.325 23.0317C48.1251 23.0317 48.8482 23.5085 49.1633 24.2439L62.5672 55.5196C63.0023 56.5348 62.532 57.7106 61.5167 58.1457C60.5014 58.5808 59.3257 58.1105 58.8906 57.0952L47.325 30.1089L35.7595 57.0952C35.3243 58.1105 34.1486 58.5808 33.1333 58.1457C32.1181 57.7106 31.6478 56.5348 32.0829 55.5196L45.4867 24.2439C45.8019 23.5085 46.525 23.0317 47.325 23.0317Z" fill="#2257BF"/>
<path fill-rule="evenodd" clip-rule="evenodd" d="M36.04 47.3718C36.04 46.2673 36.9355 45.3718 38.04 45.3718H56.61C57.7145 45.3718 58.61 46.2673 58.61 47.3718C58.61 48.4764 57.7145 49.3718 56.61 49.3718H38.04C36.9355 49.3718 36.04 48.4764 36.04 47.3718Z" fill="#2257BF"/>
<path fill-rule="evenodd" clip-rule="evenodd" d="M35.7201 7.45776C36.7895 7.73422 37.4324 8.82526 37.1559 9.89467L35.2954 9.41373C37.1559 9.89469 37.156 9.89421 37.1559 9.89467L37.1545 9.90007L37.1518 9.91026L37.1427 9.9448C37.135 9.97406 37.1238 10.0157 37.1092 10.0693C37.0801 10.1763 37.0372 10.331 36.9803 10.5293C36.8665 10.9258 36.6963 11.4971 36.4672 12.2109C36.0093 13.6377 35.3142 15.6392 34.3603 17.9568C32.46 22.5738 29.4982 28.5304 25.2774 33.6973C21.1184 38.7885 16.8549 42.6218 13.6282 45.1853C12.0134 46.4681 10.6542 47.4362 9.69176 48.0877C9.2104 48.4135 8.82788 48.6604 8.5618 48.8282C8.42874 48.912 8.32476 48.9762 8.25205 49.0205C8.21569 49.0427 8.18715 49.0599 8.1667 49.0721L8.14211 49.0868L8.13443 49.0914L8.13071 49.0936C8.13027 49.0939 8.12986 49.0941 7.11335 47.3717L8.13071 49.0936C7.17945 49.655 5.95234 49.3395 5.39094 48.3882C4.82964 47.4371 5.14547 46.2111 6.09632 45.6496C6.0965 45.6495 6.09615 45.6497 6.09632 45.6496L6.10937 45.6418C6.12164 45.6344 6.14191 45.6222 6.16991 45.6051C6.22592 45.571 6.31283 45.5174 6.42848 45.4445C6.6598 45.2987 7.00594 45.0755 7.44958 44.7752C8.33711 44.1744 9.6133 43.2663 11.1401 42.0533C14.1964 39.6252 18.2405 35.9887 22.1797 31.1667C26.057 26.4202 28.8407 20.858 30.6614 16.4344C31.568 14.2317 32.2273 12.3324 32.6586 10.9885C32.8741 10.3171 33.0323 9.7855 33.1356 9.42552C33.1873 9.24557 33.2252 9.10861 33.2497 9.01859C33.2619 8.97359 33.2708 8.94034 33.2764 8.91933L33.2823 8.89706L33.2832 8.89354" fill="#2257BF"/>
<path fill-rule="evenodd" clip-rule="evenodd" d="M15.5945 17.4162L15.5984 17.4238L15.6178 17.4609C15.6359 17.4954 15.6642 17.549 15.7027 17.621C15.7797 17.7649 15.8977 17.9821 16.0562 18.2655C16.3732 18.8324 16.8524 19.6638 17.4913 20.7032C18.7699 22.7829 20.6851 25.6905 23.2183 28.9768C25.7274 32.2319 28.1688 34.7747 29.978 36.4993C30.8818 37.3609 31.6257 38.0162 32.1384 38.4521C32.3946 38.67 32.593 38.8329 32.7244 38.9391C32.7901 38.9922 32.8391 39.0312 32.8702 39.0557L32.9033 39.0817L32.9088 39.086C33.7829 39.7608 33.9453 41.0168 33.2707 41.8912C32.5961 42.7658 31.3401 42.9278 30.4656 42.2531L31.6872 40.6696C30.4656 42.2531 30.4659 42.2534 30.4656 42.2531L30.4625 42.2508L30.4577 42.247L30.4427 42.2354L30.3919 42.1955C30.3489 42.1615 30.2878 42.1129 30.2098 42.0499C30.0538 41.9238 29.83 41.7398 29.5474 41.4995C28.9824 41.0192 28.1817 40.3132 27.218 39.3945C25.2922 37.5588 22.7072 34.8656 20.0503 31.4188C17.4174 28.0032 15.4232 24.9768 14.0837 22.798C13.4138 21.7082 12.9068 20.8291 12.565 20.218C12.3941 19.9123 12.2644 19.6736 12.1762 19.5088C12.1321 19.4264 12.0984 19.3625 12.075 19.318L12.0478 19.2659L12.0401 19.2509L12.0368 19.2446C12.0367 19.2443 12.0362 19.2434 13.8154 18.3298L12.0362 19.2434C11.5317 18.2608 11.9192 17.0553 12.9018 16.5507C13.884 16.0463 15.0897 16.4343 15.5945 17.4162Z" fill="#2257BF"/>
</svg>
