<svg width="54" height="55" viewBox="0 0 62 61" fill="none" xmlns="http://www.w3.org/2000/svg">
<path d="M19.9267 43.9543C24.5303 46.8785 29.965 49.5625 34.4066 49.5625C35.4067 49.6052 36.4051 49.444 37.3411 49.0887C38.277 48.7335 39.1309 48.1917 39.8508 47.4961C44.2085 43.1308 40.1177 35.2999 36.1565 27.7245L47.2147 16.6663C49.1848 17.9344 51.1004 19.2853 52.9563 20.7152L55.4688 17.8215C53.6956 16.4395 51.8693 15.127 49.994 13.887L57.375 6.50603L54.6796 3.8125L46.66 11.8302C40.3388 8.18925 33.1103 5.6425 29.0691 9.69138C25.1803 13.5858 28.0168 20.2367 31.4862 27.0058L19.4635 39.0267C17.6319 37.7637 15.8513 36.4283 14.126 35.0235L11.625 37.9039C13.2724 39.256 14.9669 40.5499 16.7052 41.7831L7.8125 50.6777V3.8125H4V53.375C4 54.3861 4.40167 55.3559 5.11666 56.0708C5.83164 56.7858 6.80136 57.1875 7.8125 57.1875H57.375V53.375H10.506L19.9267 43.9543ZM31.7645 12.3925C33.9281 10.2232 38.8043 11.8473 43.8444 14.6476L34.3227 24.1674C31.8198 19.175 29.843 14.3178 31.7645 12.3925ZM33.3296 30.5515C36.3414 36.3312 39.3952 42.5532 37.1554 44.7969C34.6544 47.3017 28.5353 44.7473 22.7213 41.1597L33.3296 30.5515Z" fill="#2257BF"/>
</svg>
